<?xml version="1.0" encoding="iso-8859-1"?>
<!-- Generator: Adobe Illustrator 19.0.0, SVG Export Plug-In . SVG Version: 6.00 Build 0)  -->
<svg version="1.1" id="Capa_1" xmlns="http://www.w3.org/2000/svg" xmlns:xlink="http://www.w3.org/1999/xlink" x="0px" y="0px"
	 viewBox="0 0 498.608 498.608" style="enable-background:new 0 0 498.608 498.608;" xml:space="preserve">
<g>
	<g>
		<circle cx="146.608" cy="217.304" r="8"/>
	</g>
</g>
<g>
	<g>
		<circle cx="242.608" cy="217.304" r="8"/>
	</g>
</g>
<g>
	<g>
		<path d="M234.608,265.304c0,22.056-17.944,40-40,40c-22.056,0-40-17.944-40-40h-16c0,30.88,25.12,56,56,56s56-25.12,56-56H234.608
			z"/>
	</g>
</g>
<g>
	<g>
		<path d="M387.976,33.304h-2.744c-16.888,0-30.624,13.736-30.624,30.632v1.368h16v-1.368c0-8.072,6.56-14.632,14.632-14.632h2.744
			c8.064,0,14.624,6.56,14.624,14.632c0,3.904-1.52,7.576-4.288,10.344l-19.712,19.712v19.312h16v-12.688l15.024-15.024
			c5.792-5.792,8.976-13.48,8.976-21.656C418.608,47.04,404.872,33.304,387.976,33.304z"/>
	</g>
</g>
<g>
	<g>
		<path d="M474.608,1.304h-176c-13.232,0-24,10.768-24,24v52.464c-22.616-18.168-50.848-28.464-80-28.464
			c-70.576,0-128,57.424-128,128v56c0,17.648,14.352,32,32,32h0.408c2.984,35.88,25.728,66.208,57.344,80h-1.752v1.44
			l-75.304,15.064C52.752,367.12,31.64,386.592,24.2,412.632L0,497.304h389.208l-24.192-84.672
			c-7.44-26.032-28.552-45.512-55.104-50.824l-75.304-15.064v-1.44h-1.752c31.616-13.792,54.36-44.12,57.344-80h0.408
			c17.648,0,32-14.352,32-32v-56h16v54.576l85.76-54.576h50.24c13.232,0,24-10.768,24-24v-128
			C498.608,12.072,487.84,1.304,474.608,1.304z M98.608,249.304c-8.824,0-16-7.176-16-16c0-8.824,7.176-16,16-16V249.304z
			 M158.92,362.2l24.592,36.888l-30.408,20.272l-6.088-54.776L158.92,362.2z M170.608,350.88v-0.736
			c7.688,1.992,15.704,3.16,24,3.16s16.312-1.168,24-3.16v0.736l-24,36L170.608,350.88z M257.936,367.728l48.832,9.768
			c20.656,4.128,37.08,19.28,42.864,39.528L368,481.304h-46.456l-7.016-49.136l-15.832,2.264l6.688,46.872H83.832l6.696-46.864
			l-15.832-2.264l-7.024,49.128H21.216l18.368-64.28c5.784-20.256,22.208-35.4,42.864-39.528l48.832-9.768l8.832,79.528
			l54.496-36.336l54.496,36.336L257.936,367.728z M242.2,364.584l-6.088,54.776l-30.408-20.272l24.592-36.888L242.2,364.584z
			 M274.608,257.304c0,44.112-35.888,80-80,80s-80-35.888-80-80V201.08c28.92-1.616,56.96-11.96,80-29.576
			c23.04,17.616,51.08,27.96,80,29.576V257.304z M290.608,249.304v-32c8.824,0,16,7.176,16,16
			C306.608,242.128,299.432,249.304,290.608,249.304z M306.608,205.752c-4.728-2.752-10.144-4.448-16-4.448v-16h-8
			c-29.144,0-57.728-10.024-80.488-28.232l-7.512-6.016l-7.512,6.016c-22.76,18.208-51.344,28.232-80.488,28.232h-8v16
			c-5.856,0-11.272,1.696-16,4.448v-28.448c0-61.76,50.24-112,112-112c30.456,0,58.704,12.096,80,33.96v54.04
			c0,13.232,10.768,24,24,24h8V205.752z M482.608,153.304c0,4.408-3.592,8-8,8h-54.896l-65.104,41.424v-41.424h-56
			c-4.408,0-8-3.592-8-8v-128c0-4.408,3.592-8,8-8h176c4.408,0,8,3.592,8,8V153.304z"/>
	</g>
</g>
<g>
	<g>
		<rect x="378.608" y="129.304" width="16" height="16"/>
	</g>
</g>
<g>
</g>
<g>
</g>
<g>
</g>
<g>
</g>
<g>
</g>
<g>
</g>
<g>
</g>
<g>
</g>
<g>
</g>
<g>
</g>
<g>
</g>
<g>
</g>
<g>
</g>
<g>
</g>
<g>
</g>
</svg>
